<svg xmlns="http://www.w3.org/2000/svg" width="360" height="260" viewBox="0 0 360 260" role="img" aria-label="2D vector from the origin to point 3, 2">
  <defs>
    <marker id="arrow" markerWidth="10" markerHeight="10" refX="8" refY="3" orient="auto">
      <path d="M0,0 L0,6 L9,3 z" fill="#d9480f" />
    </marker>
  </defs>
  <rect x="0" y="0" width="360" height="260" fill="#ffffff" />
  <g stroke="#e9ecef" stroke-width="1">
    <path d="M60 20 V220 M110 20 V220 M160 20 V220 M210 20 V220 M260 20 V220 M310 20 V220" />
    <path d="M40 40 H330 M40 80 H330 M40 120 H330 M40 160 H330 M40 200 H330" />
  </g>
  <path d="M40 200 H330" stroke="#343a40" stroke-width="2" />
  <path d="M60 220 V20" stroke="#343a40" stroke-width="2" />
  <path d="M60 200 L210 120" stroke="#d9480f" stroke-width="4" marker-end="url(#arrow)" />
  <path d="M60 200 H210 V120" stroke="#1971c2" stroke-width="2" stroke-dasharray="6 5" fill="none" />
  <circle cx="60" cy="200" r="4" fill="#343a40" />
  <circle cx="210" cy="120" r="4" fill="#d9480f" />
  <text x="48" y="218" font-size="14" fill="#343a40">O</text>
  <text x="214" y="114" font-size="14" fill="#d9480f">v = [3, 2]</text>
  <text x="132" y="218" font-size="13" fill="#1971c2">x = 3</text>
  <text x="218" y="164" font-size="13" fill="#1971c2">y = 2</text>
  <text x="320" y="196" font-size="14" fill="#343a40">x</text>
  <text x="66" y="32" font-size="14" fill="#343a40">y</text>
</svg>
